<svg width="150" height="150" xmlns="http://www.w3.org/2000/svg">

 <g>
  <title>Layer 1</title>
  <path d="m27.1883,117.28204c0,-0.39216 1.1403,-3.06232 1.96078,-7.84312c1.39929,-8.15334 2.68191,-18.45115 6.2745,-29.80388c3.8539,-12.17846 8.88672,-25.93678 12.15684,-33.72543c4.14643,-9.87582 7.49007,-14.85707 10.19606,-17.25487c2.1165,-1.87545 5.49019,-2.74509 7.05881,-2.74509c2.74509,0 5.05096,0.1889 7.84312,0.78431c2.71199,0.57832 4.50878,1.43975 5.49019,3.13725c1.49483,2.58556 1.73828,5.88517 1.56863,10.98037c-0.19619,5.89214 -2.3901,11.35894 -5.09803,18.8235c-1.98812,5.48034 -5.75709,12.41342 -7.45097,16.0784c-2.81139,6.08292 -3.73807,9.84512 -4.70588,13.72547c-0.9908,3.97253 -1.76432,6.64835 -1.96078,9.8039c-0.17057,2.73979 0.33224,4.72208 0.78431,6.27451c0.34672,1.19065 1.45312,1.70438 2.35294,2.35294c1.42273,1.02545 2.76028,1.38018 3.92156,1.56863c1.22409,0.19864 2.42234,0.64895 4.31372,0c2.48827,-0.85374 4.40723,-2.6543 7.45097,-5.88235c3.23957,-3.43573 5.49019,-7.84312 7.45097,-11.76469c1.56862,-3.13725 3.13004,-6.55372 3.5294,-8.62743c0.22248,-1.15524 0.50702,-2.07565 0.78431,-2.35294c0.2773,-0.2773 0.06788,-0.72656 0.39216,-1.17648c0.51273,-0.71136 1.01725,-1.37765 1.96078,-1.96078c1.0549,-0.65196 1.82254,-1.16569 3.5294,-1.56863c1.52666,-0.3604 2.74509,0 4.31372,0c1.96078,0 3.13725,0 4.70587,0l1.17647,0l0.78431,0" id="svg_83" stroke-width="6" stroke="#000" fill="none"/>
  <path d="m104.44308,52.96842c0,1.96078 0,5.09803 0,10.19606c0,6.2745 0,11.76469 0,16.47056c0,4.31372 -0.11429,9.03601 0.39216,12.15685c0.3203,1.97379 0.39216,3.13725 0.78431,3.92156c0.39216,0.78432 0.39216,1.56863 0.39216,1.96078c0,0.39215 0.39216,1.17647 0.39216,1.56862l0,0.39216" id="svg_85" stroke-width="6" stroke="#000" fill="none"/>
  <path d="m106.40386,99.24285c0,-1.17647 0.34931,-2.38799 1.96078,-4.31371c2.67528,-3.197 5.67974,-6.85621 8.62744,-9.80391c2.94769,-2.9477 5.26911,-4.48614 7.84312,-6.66666c2.11582,-1.79237 3.59186,-3.37672 4.70587,-3.92156c1.27016,-0.62122 2.35294,-1.17647 3.13725,-1.96078l0.78432,0l0.39215,0" id="svg_86" stroke-width="6" stroke="#000" fill="none"/>
  <path d="m100.91367,55.32136c0.39216,0 0.76212,0.05793 2.74509,0.78431c2.32888,0.85309 5.44547,2.44577 8.62743,3.92156c2.70935,1.2566 5.06599,2.39691 6.66666,3.5294c2.30851,1.6333 4.00891,2.2447 5.49019,3.52941c0.83794,0.72674 2.35294,1.56863 2.74509,1.96078c0.78432,0.78431 1.88118,1.27706 2.35294,1.56863c1.0549,0.65196 1.60701,1.49977 2.35294,1.96078c0.33359,0.20617 0.89917,-0.27729 1.17647,0c0.2773,0.2773 0.39217,0.39216 0.78432,0.39216l0,0.39215l0.39215,0" id="svg_88" stroke-width="6" stroke="#000" fill="none"/>
  <path d="m106.0117,56.88998c0,0.39215 0,1.56862 0,2.74509c0,1.56863 0,3.92156 0,5.88234c0,1.96078 0,3.92156 0,6.66666c0,2.74509 0,5.49019 0.39216,8.23528c0.39215,2.74509 0.58727,5.06893 0.78431,7.05881c0.11593,1.17075 0.19069,2.28382 0.39216,3.13725c0.2703,1.145 0.39215,1.56863 0.39215,1.96078c0,0.39215 0.318,0.38508 0.39216,0c0.39937,-2.07372 1.68553,-5.46622 2.35294,-9.0196c0.95214,-5.06937 0.70161,-9.02875 1.17647,-12.94115c0.33411,-2.75276 1.56863,-5.88234 0.39216,-5.88234c-0.39215,0 0.58054,2.60222 1.17647,6.2745c0.69098,4.25802 0.91013,7.81432 1.56863,10.98038c0.48573,2.33541 0.78431,2.74509 0.78431,2.35294c0,-1.17647 0.588,-4.29906 0.78432,-8.23528c0.21488,-4.30836 0.09358,-7.86065 -0.39216,-10.19606c-0.32925,-1.58302 -1.34073,-2.90936 -1.96078,-3.52941c-0.62006,-0.62006 -0.7152,-0.975 -1.56863,-1.17647c-0.76334,-0.1802 -1.17647,-0.39215 -1.17647,-0.39215c-0.39216,0 -0.81417,-0.15007 -1.17647,0c-0.51237,0.21223 -0.52752,0.46156 -1.17647,2.35294c-0.85374,2.48827 -1.7644,5.08174 -1.96078,8.62743c-0.17349,3.13245 0.46677,5.44373 1.17647,6.66666c0.44013,0.75843 0.78432,1.17647 1.17647,1.17647c0.39216,0 0.81598,-1.1704 1.17647,-3.13725c0.43004,-2.34631 0.77547,-5.51369 0.39216,-8.62744c-0.39512,-3.20957 -1.21485,-5.02917 -1.96078,-5.49018c-0.33359,-0.20617 -0.39216,0.39216 -0.39216,2.35294c0,2.35294 -0.41872,5.72735 1.56863,7.45097c0.93684,0.81252 2.36813,0.59587 3.5294,0.78432c1.22409,0.19864 2.89339,0.84459 4.70587,0c2.27605,-1.0606 3.69366,-2.45356 4.31372,-4.31372c0.12401,-0.37203 0.66946,-1.29133 0.39216,-1.56863c-0.2773,-0.2773 -0.77354,0.64607 -1.17647,2.35294c-0.72079,3.05333 0,5.09803 0,6.66666c0,0.39216 0.422,0.63425 0.78431,0.78432c0.51237,0.21223 0.78432,0.39215 1.17647,0.39215c0.39216,0 1.33867,-0.63737 2.74509,-2.35294c0.89642,-1.09346 1.17647,-2.35294 1.17647,-2.74509c0,-0.78431 -0.78431,-0.78431 -1.96078,-0.78431c-1.17647,0 -2.80087,-0.2506 -5.09803,0.39215c-2.03372,0.56905 -3.92156,1.17648 -4.70588,1.96078c-0.39216,0.39216 -0.39216,0.78431 0,0.78431c0.39216,0 1.17647,0 1.96078,0c0,0 0.96097,0.21549 1.96078,-0.78431c0.99981,-0.9998 2.54362,-3.06813 2.74509,-3.92156c0.3604,-1.52666 0.51237,-2.14071 0,-2.35294c-0.72461,-0.30014 -1.59451,-0.04798 -2.35294,0.39215c-1.22293,0.70969 -3.13741,2.85943 -4.70588,5.49019c-1.08146,1.81391 -1.96078,3.92156 -2.35294,5.09803l0,0.39216" id="svg_89" stroke-width="6" stroke="#000" fill="none"/>
  <path d="m115.42345,79.63504c0.78431,-0.78431 1.96078,-2.35294 3.92156,-3.5294l1.17647,-1.56863l1.17647,-0.78431l0.78431,-0.39216" id="svg_90" stroke-width="6" stroke="#000" fill="none"/>
  <line id="svg_91" y2="70.61545" x2="135.81558" y1="100.81148" x1="105.22739" stroke-width="6" stroke="#000" fill="none"/>
  <line stroke="#000" id="svg_92" y2="72.96839" x2="136.20773" y1="54.14489" x1="102.09014" stroke-width="6" fill="none"/>
 </g>
</svg>