<svg width="150" height="150" xmlns="http://www.w3.org/2000/svg">
 <g>
  <title>Layer 1</title>
  <line transform="rotate(-47.4604 36.2996 69.6303)" fill="none" stroke="#000" x1="1.06848" y1="101.30273" x2="71.53071" y2="37.9579" id="svg_6" stroke-width="6"/>
  <line transform="rotate(39.5693 82.4752 114.443)" fill="none" x1="44.60187" y1="145.9914" x2="120.34858" y2="82.89619" id="svg_7" stroke-width="6" stroke="#000"/>
  <path d="m38.27787,80.20287c1.33333,0 2.58028,0.1993 4.44443,0.88889c1.71866,0.63577 3.52014,0.96354 5.33332,1.77778c2.18335,0.98048 3.69333,1.92776 4.88887,2.66666c1.604,0.99133 2.80453,2.09732 3.99999,3.55554c1.01594,1.23925 2.6005,1.99346 3.55554,3.99998c0.78755,1.65462 1.54023,3.48359 2.22222,5.77776c0.64576,2.17227 1.11034,4.41685 1.33332,7.11109c0.18329,2.21465 0,3.99998 0,5.33331c0,0.44444 -0.44444,1.33333 -0.44444,1.77777l0,0.44444" id="svg_13" stroke-width="5" stroke="#000" fill="none"/>
 </g>

</svg>