<svg width="150" height="150" xmlns="http://www.w3.org/2000/svg">

 <g>
  <title>Layer 1</title>
  <line stroke-width="6" id="svg_6" y2="39.65281" x2="104.2989" y1="102.99764" x1="33.83667" stroke="#000" fill="none"/>
  <line transform="rotate(39.5693 81.3453 103.709)" stroke="#000" stroke-width="6" id="svg_7" y2="72.16178" x2="119.21864" y1="135.25699" x1="43.47193" fill="none"/>
  <path d="m64.35237,77.01336c0,0.35587 0.16877,0.76488 0.35587,1.06761c0.41835,0.67691 1.25706,1.1384 1.77935,2.13522c0.82581,1.57612 1.27899,2.67056 2.13522,4.27044c0.47495,0.88745 1.0676,2.49109 1.42348,3.20283c0.35587,0.71175 0.30318,1.14888 0.71174,2.13522c0.1926,0.46497 0.59773,0.72093 0.71174,1.42348c0.18027,1.11083 0.53246,1.39066 0.71174,2.84696c0.08696,0.70641 0,1.06761 0,1.77935c0,0.35587 0,1.0676 0,1.42348c0,0.71174 0,1.06761 0,1.42348c0,0.35587 0,0.71174 0,1.06761l0,0.35587l0,0.35587l0,0.35587" id="svg_26" stroke-width="5" stroke="#000" fill="none"/>
 </g>
</svg>