<?xml version="1.0" encoding="iso-8859-1"?>
<!-- Uploaded to: SVG Repo, www.svgrepo.com, Generator: SVG Repo Mixer Tools -->
<!DOCTYPE svg PUBLIC "-//W3C//DTD SVG 1.1//EN" "http://www.w3.org/Graphics/SVG/1.1/DTD/svg11.dtd">
<svg fill="#000000" version="1.1" id="Capa_1" xmlns="http://www.w3.org/2000/svg" xmlns:xlink="http://www.w3.org/1999/xlink" 
	 width="800px" height="800px" viewBox="0 0 774.848 774.849"
	 xml:space="preserve">
<g>
	<path d="M722.35,482.494c-28.996,0-52.5,23.505-52.5,52.5v59.349L180.505,105h59.349c28.995,0,52.5-23.505,52.5-52.5
		c0-28.995-23.505-52.5-52.5-52.5H52.5C23.505,0,0,23.505,0,52.5v184.835c0,28.995,23.505,52.5,52.5,52.5s52.5-23.505,52.5-52.5
		v-59.348l491.861,491.861h-59.348c-28.996,0-52.5,23.505-52.5,52.5c0,28.994,23.504,52.5,52.5,52.5h184.834
		c28.996,0,52.5-23.506,52.5-52.5V534.994C774.85,505.999,751.344,482.494,722.35,482.494z"/>
</g>
</svg>