<svg xmlns="http://www.w3.org/2000/svg" version="1.0" preserveAspectRatio="xMidYMid meet" viewBox="79.37 65.53 148.18 153.47">
<metadata>
Created by potrace 1.10, written by Peter Selinger 2001-2011
</metadata>
<g transform="translate(0.000000,300.000000) scale(0.100000,-0.100000)" fill="#000000" stroke="none">
<path d="M1387 2335 c-120 -42 -203 -179 -347 -575 -109 -300 -167 -509 -195 -700 -9 -62 -45 -231 -51 -242 -3 -4 17 -8 45 -8 49 0 50 1 61 38 6 20 24 114 40 207 35 200 71 339 138 530 91 258 123 339 182 461 46 95 69 130 106 163 45 39 50 41 112 41 143 0 175 -29 171 -161 -3 -124 -52 -280 -145 -470 -88 -179 -101 -213 -140 -374 -30 -124 -30 -234 -1 -278 23 -35 120 -80 172 -80 124 0 298 208 376 450 29 92 48 104 147 96 40 -3 72 -8 72 -11 0 -5 -145 -286 -211 -409 -22 -40 -39 -77 -39 -82 0 -6 22 -22 48 -35 l48 -24 45 86 c38 73 84 161 245 471 7 13 11 29 9 35 -2 6 -28 88 -58 181 -30 94 -72 224 -92 290 -20 66 -40 123 -44 128 -6 6 -41 -3 -108 -28 -2 -1 13 -48 31 -106 50 -156 113 -351 120 -376 7 -23 6 -23 -76 -23 -135 -1 -188 -36 -221 -147 -19 -62 -98 -223 -135 -273 -30 -41 -85 -95 -118 -117 -27 -17 -87 -11 -119 13 -29 22 -26 123 8 249 32 120 55 180 135 345 70 146 129 315 140 403 10 74 6 180 -9 224 -14 42 -69 89 -120 103 -64 17 -179 20 -222 5z"/>
</g>
</svg>