<svg width="150" height="150" xmlns="http://www.w3.org/2000/svg">
 <g>
  <title>Layer 1</title>
  <path stroke="#000" fill="none" stroke-width="8" id="svg_83" d="m22.42642,114.10745c0,-0.35129 1.39423,-2.74313 2.39741,-7.02563c1.71089,-7.30352 3.27913,-16.52798 7.67173,-26.69741c4.7121,-10.9091 10.86565,-23.23338 14.86397,-30.21022c5.06977,-8.84646 9.15799,-13.30851 12.46656,-15.45639c2.58781,-1.67997 6.71277,-2.45897 8.63069,-2.45897c3.35638,0 6.17573,0.16921 9.58966,0.70256c3.31591,0.51804 5.51281,1.28968 6.71277,2.81025c1.8277,2.31607 2.12537,5.27176 1.91794,9.83588c-0.23988,5.278 -2.92234,10.175 -6.23328,16.86152c-2.43084,4.90912 -7.0391,11.11957 -9.11018,14.40254c-3.43744,5.4489 -4.57048,8.81896 -5.7538,12.29486c-1.21144,3.55847 -2.15721,5.95539 -2.39741,8.78204c-0.20855,2.45422 0.40622,4.2299 0.95896,5.62052c0.42393,1.06655 1.77671,1.52673 2.8769,2.10769c1.73955,0.91857 3.37495,1.23632 4.79483,1.40513c1.49667,0.17794 2.96176,0.58131 5.27432,0c3.04237,-0.76475 5.38865,-2.37764 9.11018,-5.26923c3.96097,-3.07762 6.71277,-7.02563 9.11018,-10.53845c1.91793,-2.81025 3.82705,-5.87062 4.31534,-7.72819c0.27202,-1.03483 0.61993,-1.8593 0.95896,-2.10769c0.33905,-0.2484 0.083,-0.65083 0.47949,-1.05386c0.62691,-0.63721 1.24378,-1.23406 2.39741,-1.75641c1.28981,-0.58401 2.22839,-1.04419 4.31534,-1.40513c1.86662,-0.32284 3.35638,0 5.27432,0c2.39741,0 3.83586,0 5.75379,0l1.43845,0l0.95896,0"/>
  <line stroke="#000" id="svg_15" y2="80.66479" x2="127.57909" y1="58.97177" x1="106.94427" stroke-width="8" fill="none"/>
  <line transform="rotate(90 116.997 85.6912)" stroke="#000" id="svg_19" y2="96.27318" x2="126.78543" y1="75.10926" x1="107.20881" stroke-width="8" fill="none"/>
 </g>

</svg>