<svg width="150" height="150" xmlns="http://www.w3.org/2000/svg">

 <g>
  <title>Layer 1</title>
  <path d="m41.94092,115.03435c1.97368,-1.31579 7.60458,-6.48629 13.81573,-13.81574c3.46195,-4.08526 9.65515,-11.67962 16.11836,-19.73676c3.50517,-4.3696 8.05906,-14.7931 8.22365,-19.07887c0.10099,-2.62963 -1.22714,-7.669 -4.2763,-10.19733c-4.42952,-3.6729 -6.29182,-4.19162 -10.19733,-3.61841c-3.3979,0.49871 -5.67078,2.89051 -8.88155,6.57892c-1.68685,1.93779 -3.61633,4.19789 -4.2763,12.49995c-0.36494,4.59077 -0.10113,7.15665 1.31578,10.19733c1.7793,3.81836 5.7163,6.88634 9.53944,9.21049c4.39963,2.67461 11.80488,4.41416 16.4473,5.59208c2.93958,0.74586 9.13707,0.80737 12.17101,-0.32894c4.18992,-1.56927 6.74027,-3.30495 9.53944,-8.22366c4.44376,-7.80859 5.26314,-13.48679 6.57892,-24.9999l0,-8.88155l-0.32895,-5.92103l0,-0.32895" id="svg_33" stroke-width="6" stroke="#000" fill="none"/>
 </g>
</svg>